<?xml version="1.0" encoding="UTF-8" standalone="no"?>
<!-- Created with Inkscape (http://www.inkscape.org/) -->

<svg
   width="1404"
   height="1872"
   viewBox="0 0 1404 1872"
   version="1.1"
   id="svg1"
   sodipodi:docname="lines_mini.svg"
   inkscape:export-filename="lines_mini.png"
   inkscape:export-xdpi="96"
   inkscape:export-ydpi="96"
   inkscape:version="1.3.2 (091e20ef0f, 2023-11-25, custom)"
   xmlns:inkscape="http://www.inkscape.org/namespaces/inkscape"
   xmlns:sodipodi="http://sodipodi.sourceforge.net/DTD/sodipodi-0.dtd"
   xmlns="http://www.w3.org/2000/svg"
   xmlns:svg="http://www.w3.org/2000/svg">
  <sodipodi:namedview
     id="namedview1"
     pagecolor="#ffffff"
     bordercolor="#000000"
     borderopacity="0.25"
     inkscape:showpageshadow="2"
     inkscape:pageopacity="0.0"
     inkscape:pagecheckerboard="0"
     inkscape:deskcolor="#d1d1d1"
     inkscape:document-units="px"
     showguides="true"
     inkscape:zoom="1.3439741"
     inkscape:cx="235.86764"
     inkscape:cy="326.27117"
     inkscape:window-width="2256"
     inkscape:window-height="1451"
     inkscape:window-x="0"
     inkscape:window-y="26"
     inkscape:window-maximized="1"
     inkscape:current-layer="layer1"
     inkscape:export-bgcolor="#ffffffff" />
  <defs
     id="defs1" />
  <g
     inkscape:label="Layer 1"
     inkscape:groupmode="layer"
     id="layer1">
    <path
       style="fill:none;stroke:#000000;stroke-width:0.666666"
       d="M 9.6071535e-6,200.34333 1404,200.33333 v 0"
       id="path1" />
    <path
       style="fill:none;stroke:#808080;stroke-width:0.666667;stroke-opacity:1"
       d="M 125.00033,1871.3335 125.67733,1.2059143e-4 v 0"
       id="path1-36" />
    <path
       style="fill:none;stroke:#000000;stroke-width:0.666666"
       d="m 0,245.34333 1404,-0.01 v 0"
       id="path1-6" />
    <path
       style="fill:none;stroke:#000000;stroke-width:0.666666"
       d="m 0,290.34333 1404,-0.01 v 0"
       id="path1-3" />
    <path
       style="fill:none;stroke:#000000;stroke-width:0.666666"
       d="m 0,335.34333 1404,-0.01 v 0"
       id="path1-2" />
    <path
       style="fill:none;stroke:#000000;stroke-width:0.666666"
       d="M 2.3741666e-6,380.34333 1404,380.33333 v 0"
       id="path1-2-4" />
    <path
       style="fill:none;stroke:#000000;stroke-width:0.666666"
       d="M 2.3741666e-6,965.34333 1404,965.33333 v 0"
       id="path1-2-4-4" />
    <path
       style="fill:none;stroke:#000000;stroke-width:0.666666"
       d="M 2.3741666e-6,560.34333 1404,560.33333 v 0"
       id="path1-2-4-4-7" />
    <path
       style="fill:none;stroke:#000000;stroke-width:0.666666"
       d="M 2.3741666e-6,785.34333 1404,785.33333 v 0"
       id="path1-2-4-4-7-2" />
    <path
       style="fill:none;stroke:#000000;stroke-width:0.666666"
       d="M 2.3741666e-6,605.34333 1404,605.33333 v 0"
       id="path1-2-4-4-7-2-6" />
    <path
       style="fill:none;stroke:#000000;stroke-width:0.666666"
       d="M 2.3741665e-6,650.34333 1404,650.33333 v 0"
       id="path1-2-4-4-7-2-6-1" />
    <path
       style="fill:none;stroke:#000000;stroke-width:0.666666"
       d="M 2.3741666e-6,1820.3433 1404,1820.3333 v 0"
       id="path1-2-4-4-7-2-6-1-7" />
    <path
       style="fill:none;stroke:#000000;stroke-width:0.666666"
       d="M 2.3741666e-6,1730.3433 1404,1730.3333 v 0"
       id="path1-2-4-4-7-2-6-1-5" />
    <path
       style="fill:none;stroke:#000000;stroke-width:0.666666"
       d="M 2.3741666e-6,1550.3433 1404,1550.3333 v 0"
       id="path1-2-4-4-7-2-6-1-3" />
    <path
       style="fill:none;stroke:#000000;stroke-width:0.666666"
       d="M 2.3741666e-6,740.34333 1404,740.33333 v 0"
       id="path1-2-4-4-7-2-6-1-1" />
    <path
       style="fill:none;stroke:#000000;stroke-width:0.666666"
       d="M 2.3741666e-6,1640.3433 1404,1640.3333 v 0"
       id="path1-2-4-4-7-2-6-1-4" />
    <path
       style="fill:none;stroke:#000000;stroke-width:0.666666"
       d="M 2.3741666e-6,1460.3433 1404,1460.3333 v 0"
       id="path1-2-4-4-7-2-6-1-8" />
    <path
       style="fill:none;stroke:#000000;stroke-width:0.666666"
       d="M 2.3741666e-6,1370.3433 1404,1370.3333 v 0"
       id="path1-2-4-4-7-2-6-1-88" />
    <path
       style="fill:none;stroke:#000000;stroke-width:0.666666"
       d="M 2.3741666e-6,1280.3433 1404,1280.3333 v 0"
       id="path1-2-4-4-7-2-6-1-76" />
    <path
       style="fill:none;stroke:#000000;stroke-width:0.666666"
       d="M 2.3741666e-6,1190.3433 1404,1190.3333 v 0"
       id="path1-2-4-4-7-2-6-1-30" />
    <path
       style="fill:none;stroke:#000000;stroke-width:0.666666"
       d="M 2.3741666e-6,1100.3433 1404,1100.3333 v 0"
       id="path1-2-4-4-7-2-6-1-40" />
    <path
       style="fill:none;stroke:#000000;stroke-width:0.666666"
       d="M 2.3741666e-6,1010.3433 1404,1010.3333 v 0"
       id="path1-2-4-4-7-2-6-1-6" />
    <path
       style="fill:none;stroke:#000000;stroke-width:0.666666"
       d="M 2.3741666e-6,920.34333 1404,920.33333 v 0"
       id="path1-2-4-4-7-2-6-1-47" />
    <path
       style="fill:none;stroke:#000000;stroke-width:0.666666"
       d="M 2.3741666e-6,830.34333 1404,830.33333 v 0"
       id="path1-2-4-4-7-2-6-1-81" />
    <path
       style="fill:none;stroke:#000000;stroke-width:0.666666"
       d="M 2.3741666e-6,515.34333 1404,515.33333 v 0"
       id="path1-2-4-4-7-2-6-4" />
    <path
       style="fill:none;stroke:#000000;stroke-width:0.666666"
       d="M 2.3741666e-6,1775.3433 1404,1775.3333 v 0"
       id="path1-2-4-4-7-2-6-4-1" />
    <path
       style="fill:none;stroke:#000000;stroke-width:0.666666"
       d="M 2.3741666e-6,1685.3433 1404,1685.3333 v 0"
       id="path1-2-4-4-7-2-6-4-1-1" />
    <path
       style="fill:none;stroke:#000000;stroke-width:0.666666"
       d="M 2.3741666e-6,695.34333 1404,695.33333 v 0"
       id="path1-2-4-4-7-2-6-4-1-1-7" />
    <path
       style="fill:none;stroke:#000000;stroke-width:0.666666"
       d="M 2.3741666e-6,1595.3433 1404,1595.3333 v 0"
       id="path1-2-4-4-7-2-6-4-1-1-6" />
    <path
       style="fill:none;stroke:#000000;stroke-width:0.666666"
       d="M 2.3741666e-6,1505.3433 1404,1505.3333 v 0"
       id="path1-2-4-4-7-2-6-4-1-1-9" />
    <path
       style="fill:none;stroke:#000000;stroke-width:0.666666"
       d="M 2.3741666e-6,1415.3433 1404,1415.3333 v 0"
       id="path1-2-4-4-7-2-6-4-1-1-2" />
    <path
       style="fill:none;stroke:#000000;stroke-width:0.666666"
       d="M 2.3741666e-6,1325.3433 1404,1325.3333 v 0"
       id="path1-2-4-4-7-2-6-4-1-1-0" />
    <path
       style="fill:none;stroke:#000000;stroke-width:0.666666"
       d="M 2.3741666e-6,1235.3433 1404,1235.3333 v 0"
       id="path1-2-4-4-7-2-6-4-1-1-09" />
    <path
       style="fill:none;stroke:#000000;stroke-width:0.666666"
       d="M 2.3741666e-6,1145.3433 1404,1145.3333 v 0"
       id="path1-2-4-4-7-2-6-4-1-1-5" />
    <path
       style="fill:none;stroke:#000000;stroke-width:0.666666"
       d="M 2.3741666e-6,1055.3433 1404,1055.3333 v 0"
       id="path1-2-4-4-7-2-6-4-1-1-59" />
    <path
       style="fill:none;stroke:#000000;stroke-width:0.666666"
       d="M 2.3741666e-6,470.34333 1404,470.33333 v 0"
       id="path1-2-4-4-7-2-6-4-1-1-1" />
    <path
       style="fill:none;stroke:#000000;stroke-width:0.666666"
       d="M 2.3741666e-6,875.34333 1404,875.33333 v 0"
       id="path1-2-4-4-7-2-6-4-1-1-4" />
    <path
       style="fill:none;stroke:#000000;stroke-width:0.666666"
       d="M 2.3741666e-6,425.34333 1404,425.33333 v 0"
       id="path1-2-4-4-7-2-6-4-1-1-76" />
  </g>
</svg>
